<svg width="18" height="18" viewBox="0 0 18 18" fill="none" xmlns="http://www.w3.org/2000/svg">
<path d="M8.14097 1.44147C8.52879 0.790705 9.47121 0.790704 9.85903 1.44147L12.0545 5.12546C12.1946 5.36065 12.4251 5.52809 12.6921 5.58871L16.8742 6.53828C17.6129 6.70602 17.9042 7.60232 17.4051 8.17225L14.5798 11.3987C14.3995 11.6046 14.3115 11.8756 14.3363 12.1482L14.7255 16.4191C14.7943 17.1735 14.0319 17.7274 13.3356 17.4289L9.39406 15.739C9.14243 15.6311 8.85757 15.6311 8.60594 15.739L4.66439 17.4289C3.96813 17.7274 3.20569 17.1735 3.27445 16.4191L3.6637 12.1482C3.68855 11.8756 3.60052 11.6046 3.42016 11.3987L0.594896 8.17225C0.0958272 7.60232 0.387052 6.70602 1.1258 6.53828L5.30792 5.58871C5.57491 5.52809 5.80537 5.36065 5.94553 5.12546L8.14097 1.44147Z" fill="white"/>
</svg>
