<svg width="40" height="40" viewBox="0 0 40 40" fill="none" xmlns="http://www.w3.org/2000/svg">
<g clip-path="url(#clip0_1095_733)">
<path d="M28.333 15.002H11.6673C11.2073 15.002 10.834 15.3753 10.834 15.8353V29.1677C10.834 31.181 12.2673 32.8625 14.1671 33.2508V37.5005C14.1671 38.8788 15.2887 40.0004 16.667 40.0004C18.0452 40.0004 19.1668 38.8788 19.1668 37.5005V33.3342H20.8334V37.5005C20.8334 38.8788 21.9549 40.0004 23.3332 40.0004C24.7115 40.0004 25.833 38.8788 25.833 37.5005V33.2508C27.7329 32.8642 29.1662 31.181 29.1662 29.1677V15.8353C29.1662 15.3736 28.7929 15.002 28.333 15.002Z" fill="white"/>
<path d="M24.3614 4.44064L25.7663 1.1625C25.948 0.739169 25.7513 0.25092 25.328 0.0692133C24.9097 -0.114134 24.4147 0.0825718 24.2347 0.507544L22.8298 3.78733C21.9382 3.49735 20.9883 3.33572 20.0016 3.33572C19.015 3.33572 18.0651 3.49735 17.1734 3.78733L15.7653 0.507544C15.5853 0.0825718 15.0904 -0.115774 14.672 0.0692133C14.2487 0.250842 14.0537 0.74081 14.2354 1.1625L15.6403 4.44064C12.7789 5.9939 10.834 9.02534 10.834 12.5017C10.834 12.9617 11.2073 13.3351 11.6673 13.3351H28.3329C28.7929 13.3351 29.1662 12.9617 29.1662 12.5017C29.1661 9.02534 27.2212 5.9939 24.3614 4.44064ZM16.6669 10.0019C16.2069 10.0019 15.8336 9.62858 15.8336 9.16861C15.8336 8.70864 16.2069 8.33531 16.6669 8.33531C17.1269 8.33531 17.5002 8.70864 17.5002 9.16861C17.5002 9.62858 17.1269 10.0019 16.6669 10.0019ZM23.3332 10.0019C22.8732 10.0019 22.4999 9.62858 22.4999 9.16861C22.4999 8.70864 22.8732 8.33531 23.3332 8.33531C23.7932 8.33531 24.1665 8.70864 24.1665 9.16861C24.1665 9.62858 23.7932 10.0019 23.3332 10.0019Z" fill="white"/>
<path d="M33.3324 15.002C31.9541 15.002 30.8325 16.1235 30.8325 17.5018V25.8346C30.8325 27.2129 31.9541 28.3344 33.3324 28.3344C34.7106 28.3344 35.8322 27.2129 35.8322 25.8346V17.5018C35.8322 16.1236 34.7106 15.002 33.3324 15.002Z" fill="white"/>
<path d="M6.6678 15.002C5.28954 15.002 4.16797 16.1235 4.16797 17.5018V25.8346C4.16797 27.2129 5.28954 28.3344 6.6678 28.3344C8.04607 28.3344 9.16764 27.2129 9.16764 25.8346V17.5018C9.16764 16.1236 8.04607 15.002 6.6678 15.002Z" fill="white"/>
</g>
<defs>
<clipPath id="clip0_1095_733">
<rect width="40" height="40" fill="white"/>
</clipPath>
</defs>
</svg>
