<svg width="37" height="35" viewBox="0 0 37 35" fill="none" xmlns="http://www.w3.org/2000/svg">
<path d="M24.7514 0C22.8322 0.129062 20.5889 1.32343 19.2817 2.87873C18.0892 4.28966 17.1082 6.38528 17.4907 8.42183C19.5877 8.48526 21.7544 7.26246 23.0099 5.6809C24.1844 4.20873 25.0732 2.12624 24.7514 0Z" fill="white"/>
<path d="M32.3359 11.7423C30.4932 9.49576 27.9034 8.19202 25.4577 8.19202C22.229 8.19202 20.8632 9.69482 18.62 9.69482C16.307 9.69482 14.5498 8.19639 11.7575 8.19639C9.0148 8.19639 6.09432 9.82607 4.24258 12.6129C1.63934 16.5373 2.08484 23.9157 6.30356 30.2003C7.8133 32.4491 9.82929 34.9778 12.4663 34.9997C14.813 35.0216 15.4745 33.5362 18.6537 33.5209C21.833 33.5034 22.436 35.0194 24.7782 34.9953C27.4174 34.9756 29.5437 32.1734 31.0534 29.9247C32.1357 28.3125 32.5384 27.501 33.3777 25.681C27.2734 23.4213 26.2947 14.982 32.3359 11.7423Z" fill="white"/>
</svg>
