<svg width="40" height="40" viewBox="0 0 40 40" fill="none" xmlns="http://www.w3.org/2000/svg">
<path d="M19.9997 3.33334C29.2044 3.33334 36.6663 10.7953 36.6663 20C36.6663 29.2048 29.2044 36.6667 19.9997 36.6667C10.7949 36.6667 3.33301 29.2048 3.33301 20C3.33301 10.7953 10.7949 3.33334 19.9997 3.33334ZM19.9997 5.83334C12.1756 5.83334 5.83301 12.176 5.83301 20C5.83301 27.824 12.1756 34.1667 19.9997 34.1667C27.8237 34.1667 34.1663 27.824 34.1663 20C34.1663 12.176 27.8237 5.83334 19.9997 5.83334ZM25.7434 13.9951L25.8836 14.1161C26.3273 14.5599 26.3677 15.2543 26.0046 15.7437L25.8836 15.8839L21.768 20L25.8836 24.1161C26.3273 24.5599 26.3677 25.2543 26.0046 25.7437L25.8836 25.8839C25.4398 26.3277 24.7453 26.368 24.256 26.0049L24.1158 25.8839L19.9997 21.7683L15.8836 25.8839C15.4398 26.3277 14.7453 26.368 14.256 26.0049L14.1158 25.8839C13.672 25.4401 13.6317 24.7457 13.9948 24.2563L14.1158 24.1161L18.2313 20L14.1158 15.8839C13.672 15.4401 13.6317 14.7457 13.9948 14.2563L14.1158 14.1161C14.5596 13.6723 15.254 13.632 15.7434 13.9951L15.8836 14.1161L19.9997 18.2317L24.1158 14.1161C24.5596 13.6723 25.254 13.632 25.7434 13.9951Z" fill="white"/>
</svg>
