<svg width="24" height="24" viewBox="0 0 24 24" fill="none" xmlns="http://www.w3.org/2000/svg">
<path d="M18.1568 16.8823L16.9698 18.0562C16.0949 18.9149 14.9598 20.0188 13.5639 21.3684C12.6917 22.2118 11.3079 22.2117 10.4358 21.3682L6.94466 17.9723C6.5059 17.5415 6.13863 17.1782 5.84279 16.8823C2.44238 13.4819 2.44238 7.96878 5.84279 4.56837C9.2432 1.16796 14.7564 1.16796 18.1568 4.56837C21.5572 7.96878 21.5572 13.4819 18.1568 16.8823ZM14.5 11.0001C14.5 9.61924 13.3806 8.49986 11.9998 8.49986C10.619 8.49986 9.49958 9.61924 9.49958 11.0001C9.49958 12.3809 10.619 13.5003 11.9998 13.5003C13.3806 13.5003 14.5 12.3809 14.5 11.0001Z" fill="#2C30E3"/>
<path d="M18.1568 16.8823L16.9698 18.0562C16.0949 18.9149 14.9598 20.0188 13.5639 21.3684C12.6917 22.2118 11.3079 22.2117 10.4358 21.3682L6.94466 17.9723C6.5059 17.5415 6.13863 17.1782 5.84279 16.8823C2.44238 13.4819 2.44238 7.96878 5.84279 4.56837C9.2432 1.16796 14.7564 1.16796 18.1568 4.56837C21.5572 7.96878 21.5572 13.4819 18.1568 16.8823ZM14.5 11.0001C14.5 9.61924 13.3806 8.49986 11.9998 8.49986C10.619 8.49986 9.49958 9.61924 9.49958 11.0001C9.49958 12.3809 10.619 13.5003 11.9998 13.5003C13.3806 13.5003 14.5 12.3809 14.5 11.0001Z" fill="url(#paint0_linear_1095_909)"/>
<defs>
<linearGradient id="paint0_linear_1095_909" x1="5.36839" y1="19.2813" x2="23.6619" y2="4.61863" gradientUnits="userSpaceOnUse">
<stop stop-color="#1738E3"/>
<stop offset="1" stop-color="#7117E3"/>
</linearGradient>
</defs>
</svg>
