<svg width="38" height="37" viewBox="0 0 38 37" fill="none" xmlns="http://www.w3.org/2000/svg">
<path d="M26.1233 0C24.0975 0.136437 21.7296 1.39905 20.3497 3.04323C19.091 4.53479 18.0555 6.75015 18.4592 8.90307C20.6727 8.97014 22.9598 7.67746 24.2851 6.00553C25.5248 4.44922 26.4629 2.24774 26.1233 0Z" fill="white"/>
<path d="M34.1294 12.4133C32.1843 10.0384 29.4507 8.66016 26.8691 8.66016C23.461 8.66016 22.0194 10.2488 19.6515 10.2488C17.21 10.2488 15.3552 8.66478 12.4078 8.66478C9.51269 8.66478 6.42996 10.3876 4.47535 13.3337C1.72749 17.4823 2.19773 25.2823 6.65083 31.9261C8.24445 34.3033 10.3724 36.9766 13.1559 36.9997C15.633 37.0228 16.3313 35.4526 19.6871 35.4364C23.043 35.4179 23.6795 37.0205 26.1518 36.9951C28.9377 36.9742 31.1821 34.0119 32.7757 31.6347C33.918 29.9304 34.3432 29.0725 35.229 27.1485C28.7857 24.7597 27.7526 15.8381 34.1294 12.4133Z" fill="white"/>
</svg>
