<svg width="207" height="108" viewBox="0 0 207 108" fill="none" xmlns="http://www.w3.org/2000/svg">
<path d="M62.5479 9.74816C62.1651 10.5954 61.4805 11.0635 60.4942 11.1523L60.2327 11.1601C58.5985 10.9695 56.1858 11.011 52.9944 11.2845C49.8014 11.4983 46.2947 11.9304 42.4743 12.5807C39.6611 17.9183 36.8582 23.6138 34.0655 29.6672C31.331 35.7189 28.881 41.5532 26.7156 47.1701C25.6885 49.8874 24.7733 52.4521 23.9701 54.8641C23.1669 57.2762 22.4747 59.5059 21.8937 61.5532C21.3708 63.5987 20.9863 65.4014 20.7402 66.9611C20.5506 68.4594 20.5268 69.6543 20.6687 70.5457C20.8089 71.3775 20.8235 71.8846 20.7124 72.067C20.6594 72.2477 20.1979 72.3807 19.3279 72.4662C18.227 72.6181 17.2963 72.6158 16.5356 72.4592C14.3134 72.0472 12.422 70.9985 10.8612 69.3131C9.35857 67.626 8.4576 65.6225 8.15831 63.3027C8.01466 62.3517 8.07099 61.2752 8.32731 60.0735C8.8211 57.0137 10.049 53.1859 12.011 48.5901C13.9713 43.9346 16.2743 39.0599 18.9201 33.9662C20.6292 30.6914 22.3982 27.4745 24.227 24.3156C26.1121 21.0953 27.9452 18.0855 29.7262 15.2863C28.8595 15.491 27.9938 15.7256 27.1289 15.99C26.2639 16.2544 25.4281 16.518 24.6213 16.7807C22.606 17.4971 20.7078 18.2398 18.9267 19.009C17.1456 19.7782 15.5705 20.6308 14.2014 21.5669C12.8887 22.4416 11.8101 23.3691 10.9658 24.3495C10.1778 25.2684 9.71212 26.2673 9.56861 27.3463L9.43538 28.7833L8.04055 28.8245C7.11066 28.852 6.26453 28.7576 5.50214 28.5413C4.73804 28.2654 4.02949 27.8982 3.37648 27.4399C2.72177 26.9218 2.12345 26.3424 1.58154 25.7017C1.09604 24.9995 0.725058 24.2343 0.468598 23.4059C-0.100727 21.8106 -0.151274 20.0507 0.316956 18.1262C0.829596 15.7227 2.1918 13.5329 4.40356 11.5569C6.67174 9.51941 9.67837 7.87809 13.4235 6.6329C17.1669 5.32805 21.2393 4.34187 25.6409 3.67435C28.5365 3.23048 31.4936 2.90421 34.5123 2.69555C37.5892 2.48516 40.5523 2.36769 43.4018 2.34315C46.3077 2.25723 49.0717 2.29493 51.6939 2.45623C54.3143 2.55788 56.675 2.72692 58.7758 2.96335L58.8629 2.96077C59.6817 3.11569 60.3911 3.51267 60.9912 4.15172C61.6476 4.7294 62.1314 5.37189 62.4425 6.07919C62.5673 6.37405 62.6631 6.66976 62.7298 6.96633C62.7947 7.20324 62.8606 7.46999 62.9273 7.76656C62.9495 8.54211 62.8231 9.20265 62.5479 9.74816Z" fill="white"/>
<path d="M62.5479 9.74816C62.1651 10.5954 61.4805 11.0635 60.4942 11.1523L60.2327 11.1601C58.5985 10.9695 56.1858 11.011 52.9944 11.2845C49.8014 11.4983 46.2947 11.9304 42.4743 12.5807C39.6611 17.9183 36.8582 23.6138 34.0655 29.6672C31.331 35.7189 28.881 41.5532 26.7156 47.1701C25.6885 49.8874 24.7733 52.4521 23.9701 54.8641C23.1669 57.2762 22.4747 59.5059 21.8937 61.5532C21.3708 63.5987 20.9863 65.4014 20.7402 66.9611C20.5506 68.4594 20.5268 69.6543 20.6687 70.5457C20.8089 71.3775 20.8235 71.8846 20.7124 72.067C20.6594 72.2477 20.1979 72.3807 19.3279 72.4662C18.227 72.6181 17.2963 72.6158 16.5356 72.4592C14.3134 72.0472 12.422 70.9985 10.8612 69.3131C9.35857 67.626 8.4576 65.6225 8.15831 63.3027C8.01466 62.3517 8.07099 61.2752 8.32731 60.0735C8.8211 57.0137 10.049 53.1859 12.011 48.5901C13.9713 43.9346 16.2743 39.0599 18.9201 33.9662C20.6292 30.6914 22.3982 27.4745 24.227 24.3156C26.1121 21.0953 27.9452 18.0855 29.7262 15.2863C28.8595 15.491 27.9938 15.7256 27.1289 15.99C26.2639 16.2544 25.4281 16.518 24.6213 16.7807C22.606 17.4971 20.7078 18.2398 18.9267 19.009C17.1456 19.7782 15.5705 20.6308 14.2014 21.5669C12.8887 22.4416 11.8101 23.3691 10.9658 24.3495C10.1778 25.2684 9.71212 26.2673 9.56861 27.3463L9.43538 28.7833L8.04055 28.8245C7.11066 28.852 6.26453 28.7576 5.50214 28.5413C4.73804 28.2654 4.02949 27.8982 3.37648 27.4399C2.72177 26.9218 2.12345 26.3424 1.58154 25.7017C1.09604 24.9995 0.725058 24.2343 0.468598 23.4059C-0.100727 21.8106 -0.151274 20.0507 0.316956 18.1262C0.829596 15.7227 2.1918 13.5329 4.40356 11.5569C6.67174 9.51941 9.67837 7.87809 13.4235 6.6329C17.1669 5.32805 21.2393 4.34187 25.6409 3.67435C28.5365 3.23048 31.4936 2.90421 34.5123 2.69555C37.5892 2.48516 40.5523 2.36769 43.4018 2.34315C46.3077 2.25723 49.0717 2.29493 51.6939 2.45623C54.3143 2.55788 56.675 2.72692 58.7758 2.96335L58.8629 2.96077C59.6817 3.11569 60.3911 3.51267 60.9912 4.15172C61.6476 4.7294 62.1314 5.37189 62.4425 6.07919C62.5673 6.37405 62.6631 6.66976 62.7298 6.96633C62.7947 7.20324 62.8606 7.46999 62.9273 7.76656C62.9495 8.54211 62.8231 9.20265 62.5479 9.74816Z" fill="url(#paint0_linear_1095_631)"/>
<path d="M62.5479 9.74816C62.1651 10.5954 61.4805 11.0635 60.4942 11.1523L60.2327 11.1601C58.5985 10.9695 56.1858 11.011 52.9944 11.2845C49.8014 11.4983 46.2947 11.9304 42.4743 12.5807C39.6611 17.9183 36.8582 23.6138 34.0655 29.6672C31.331 35.7189 28.881 41.5532 26.7156 47.1701C25.6885 49.8874 24.7733 52.4521 23.9701 54.8641C23.1669 57.2762 22.4747 59.5059 21.8937 61.5532C21.3708 63.5987 20.9863 65.4014 20.7402 66.9611C20.5506 68.4594 20.5268 69.6543 20.6687 70.5457C20.8089 71.3775 20.8235 71.8846 20.7124 72.067C20.6594 72.2477 20.1979 72.3807 19.3279 72.4662C18.227 72.6181 17.2963 72.6158 16.5356 72.4592C14.3134 72.0472 12.422 70.9985 10.8612 69.3131C9.35857 67.626 8.4576 65.6225 8.15831 63.3027C8.01466 62.3517 8.07099 61.2752 8.32731 60.0735C8.8211 57.0137 10.049 53.1859 12.011 48.5901C13.9713 43.9346 16.2743 39.0599 18.9201 33.9662C20.6292 30.6914 22.3982 27.4745 24.227 24.3156C26.1121 21.0953 27.9452 18.0855 29.7262 15.2863C28.8595 15.491 27.9938 15.7256 27.1289 15.99C26.2639 16.2544 25.4281 16.518 24.6213 16.7807C22.606 17.4971 20.7078 18.2398 18.9267 19.009C17.1456 19.7782 15.5705 20.6308 14.2014 21.5669C12.8887 22.4416 11.8101 23.3691 10.9658 24.3495C10.1778 25.2684 9.71212 26.2673 9.56861 27.3463L9.43538 28.7833L8.04055 28.8245C7.11066 28.852 6.26453 28.7576 5.50214 28.5413C4.73804 28.2654 4.02949 27.8982 3.37648 27.4399C2.72177 26.9218 2.12345 26.3424 1.58154 25.7017C1.09604 24.9995 0.725058 24.2343 0.468598 23.4059C-0.100727 21.8106 -0.151274 20.0507 0.316956 18.1262C0.829596 15.7227 2.1918 13.5329 4.40356 11.5569C6.67174 9.51941 9.67837 7.87809 13.4235 6.6329C17.1669 5.32805 21.2393 4.34187 25.6409 3.67435C28.5365 3.23048 31.4936 2.90421 34.5123 2.69555C37.5892 2.48516 40.5523 2.36769 43.4018 2.34315C46.3077 2.25723 49.0717 2.29493 51.6939 2.45623C54.3143 2.55788 56.675 2.72692 58.7758 2.96335L58.8629 2.96077C59.6817 3.11569 60.3911 3.51267 60.9912 4.15172C61.6476 4.7294 62.1314 5.37189 62.4425 6.07919C62.5673 6.37405 62.6631 6.66976 62.7298 6.96633C62.7947 7.20324 62.8606 7.46999 62.9273 7.76656C62.9495 8.54211 62.8231 9.20265 62.5479 9.74816Z" fill="url(#paint1_linear_1095_631)"/>
<path d="M74.262 48.4769C75.409 47.9056 76.602 46.915 77.8412 45.505C79.0804 44.0951 80.3349 42.2071 81.6048 39.8409L82.4252 38.0254C82.6986 37.4202 83.0661 37.0511 83.5276 36.918C84.0455 36.7236 84.4814 36.7107 84.8353 36.8793C85.2473 37.0463 85.5182 37.3667 85.6482 37.8405C85.7781 38.3143 85.6781 38.8845 85.3483 39.5511C84.7467 40.8824 83.8665 42.64 82.7077 44.8238C81.6053 46.9462 80.3294 49.1036 78.88 51.2959C78.0443 52.5745 77.1196 53.796 76.106 54.9604C75.1506 56.1231 74.1626 57.1674 73.1422 58.0932C72.1218 59.019 71.0672 59.7667 69.9783 60.3363C68.8878 60.8462 67.7904 61.1174 66.6862 61.1501C65.758 61.2372 64.9418 61.1718 64.2375 60.9538C63.241 60.6847 62.3563 60.2631 61.5837 59.6888C60.8691 59.1129 60.2674 58.4142 59.7785 57.5927C59.2912 56.8309 58.9185 56.006 58.6604 55.118C58.4603 54.2283 58.3167 53.2772 58.2294 52.2647L58.2063 51.4594C57.0919 53.1641 55.9177 54.811 54.6836 56.3999C53.506 57.9274 52.295 59.3067 51.0507 60.5376C49.8628 61.7072 48.6398 62.6689 47.3818 63.4226C46.1801 64.1149 44.9691 64.4791 43.7486 64.5152C41.5982 64.5787 39.8692 64.1223 38.5615 63.146C37.2538 62.1696 36.3135 60.8241 35.7408 59.1095C35.3629 58.1056 35.156 56.9773 35.12 55.7244C35.0242 54.4137 35.072 53.039 35.2633 51.6003C35.6495 48.8423 36.4108 45.9836 37.5473 43.0243C38.5197 40.4281 39.7554 37.8838 41.2544 35.3914C42.7516 32.8394 44.3736 30.5822 46.1204 28.6199C47.9254 26.6559 49.8286 25.077 51.8302 23.8834C53.8318 22.6897 55.8505 22.0927 57.8863 22.0922C58.9923 22.1192 60.0452 22.3269 61.0452 22.7153C62.0435 23.044 62.9632 23.6736 63.8043 24.6041C64.4043 25.2431 64.9488 25.9734 65.4377 26.7949C65.9847 27.6146 66.5079 28.6142 67.0071 29.7936C67.566 29.0009 68.1557 28.2669 68.7761 27.5918C69.6205 26.6115 70.6204 25.9848 71.7759 25.7118C72.9878 25.3775 74.0912 25.315 75.0861 25.5244C75.7869 25.6231 76.3467 25.8752 76.7655 26.2808C77.357 26.6216 77.8083 27.1456 78.1195 27.8529C78.311 28.4444 78.3298 29.1006 78.176 29.8216C78.0205 30.483 77.6325 31.1513 77.0121 31.8264C76.0549 32.9295 75.1866 34.0896 74.4073 35.3068C73.6843 36.4627 73.0494 37.6458 72.5024 38.8561C71.9026 40.2471 71.4463 41.5742 71.1335 42.8374C70.8191 44.0408 70.6448 45.061 70.6107 45.898C70.5834 46.9735 70.7826 47.8334 71.2083 48.4776C71.4493 48.769 71.8032 48.9377 72.2698 48.9836C72.7946 49.0278 73.4587 48.8589 74.262 48.4769ZM63.5406 30.6126C62.4533 29.2118 61.2149 28.6214 59.8252 28.8416C58.8406 28.9902 57.8091 29.5282 56.7305 30.4557C55.7101 31.3815 54.7239 32.4854 53.7719 33.7675C52.7651 35.1705 51.8499 36.7201 51.0261 38.4163C50.2023 40.1125 49.5238 41.8044 48.9906 43.492C48.2386 45.6638 47.8012 47.6471 47.6782 49.442C47.6117 51.1755 47.9921 52.2689 48.8195 52.7221C49.6468 53.1753 50.8314 52.9014 52.3731 51.9005C54.0243 50.6575 55.7728 48.7549 57.6188 46.1925C58.4494 44.735 59.251 43.2782 60.0235 41.8224C60.796 40.3666 61.4848 39.0326 62.0898 37.8205C62.1445 37.6995 62.2001 37.6083 62.2565 37.5469C62.3112 37.4259 62.3659 37.3049 62.4206 37.1838L64.1536 33.7292C64.5399 33.0013 64.6407 32.4609 64.456 32.1081C64.3295 31.7536 64.0244 31.2551 63.5406 30.6126Z" fill="white"/>
<path d="M74.262 48.4769C75.409 47.9056 76.602 46.915 77.8412 45.505C79.0804 44.0951 80.3349 42.2071 81.6048 39.8409L82.4252 38.0254C82.6986 37.4202 83.0661 37.0511 83.5276 36.918C84.0455 36.7236 84.4814 36.7107 84.8353 36.8793C85.2473 37.0463 85.5182 37.3667 85.6482 37.8405C85.7781 38.3143 85.6781 38.8845 85.3483 39.5511C84.7467 40.8824 83.8665 42.64 82.7077 44.8238C81.6053 46.9462 80.3294 49.1036 78.88 51.2959C78.0443 52.5745 77.1196 53.796 76.106 54.9604C75.1506 56.1231 74.1626 57.1674 73.1422 58.0932C72.1218 59.019 71.0672 59.7667 69.9783 60.3363C68.8878 60.8462 67.7904 61.1174 66.6862 61.1501C65.758 61.2372 64.9418 61.1718 64.2375 60.9538C63.241 60.6847 62.3563 60.2631 61.5837 59.6888C60.8691 59.1129 60.2674 58.4142 59.7785 57.5927C59.2912 56.8309 58.9185 56.006 58.6604 55.118C58.4603 54.2283 58.3167 53.2772 58.2294 52.2647L58.2063 51.4594C57.0919 53.1641 55.9177 54.811 54.6836 56.3999C53.506 57.9274 52.295 59.3067 51.0507 60.5376C49.8628 61.7072 48.6398 62.6689 47.3818 63.4226C46.1801 64.1149 44.9691 64.4791 43.7486 64.5152C41.5982 64.5787 39.8692 64.1223 38.5615 63.146C37.2538 62.1696 36.3135 60.8241 35.7408 59.1095C35.3629 58.1056 35.156 56.9773 35.12 55.7244C35.0242 54.4137 35.072 53.039 35.2633 51.6003C35.6495 48.8423 36.4108 45.9836 37.5473 43.0243C38.5197 40.4281 39.7554 37.8838 41.2544 35.3914C42.7516 32.8394 44.3736 30.5822 46.1204 28.6199C47.9254 26.6559 49.8286 25.077 51.8302 23.8834C53.8318 22.6897 55.8505 22.0927 57.8863 22.0922C58.9923 22.1192 60.0452 22.3269 61.0452 22.7153C62.0435 23.044 62.9632 23.6736 63.8043 24.6041C64.4043 25.2431 64.9488 25.9734 65.4377 26.7949C65.9847 27.6146 66.5079 28.6142 67.0071 29.7936C67.566 29.0009 68.1557 28.2669 68.7761 27.5918C69.6205 26.6115 70.6204 25.9848 71.7759 25.7118C72.9878 25.3775 74.0912 25.315 75.0861 25.5244C75.7869 25.6231 76.3467 25.8752 76.7655 26.2808C77.357 26.6216 77.8083 27.1456 78.1195 27.8529C78.311 28.4444 78.3298 29.1006 78.176 29.8216C78.0205 30.483 77.6325 31.1513 77.0121 31.8264C76.0549 32.9295 75.1866 34.0896 74.4073 35.3068C73.6843 36.4627 73.0494 37.6458 72.5024 38.8561C71.9026 40.2471 71.4463 41.5742 71.1335 42.8374C70.8191 44.0408 70.6448 45.061 70.6107 45.898C70.5834 46.9735 70.7826 47.8334 71.2083 48.4776C71.4493 48.769 71.8032 48.9377 72.2698 48.9836C72.7946 49.0278 73.4587 48.8589 74.262 48.4769ZM63.5406 30.6126C62.4533 29.2118 61.2149 28.6214 59.8252 28.8416C58.8406 28.9902 57.8091 29.5282 56.7305 30.4557C55.7101 31.3815 54.7239 32.4854 53.7719 33.7675C52.7651 35.1705 51.8499 36.7201 51.0261 38.4163C50.2023 40.1125 49.5238 41.8044 48.9906 43.492C48.2386 45.6638 47.8012 47.6471 47.6782 49.442C47.6117 51.1755 47.9921 52.2689 48.8195 52.7221C49.6468 53.1753 50.8314 52.9014 52.3731 51.9005C54.0243 50.6575 55.7728 48.7549 57.6188 46.1925C58.4494 44.735 59.251 43.2782 60.0235 41.8224C60.796 40.3666 61.4848 39.0326 62.0898 37.8205C62.1445 37.6995 62.2001 37.6083 62.2565 37.5469C62.3112 37.4259 62.3659 37.3049 62.4206 37.1838L64.1536 33.7292C64.5399 33.0013 64.6407 32.4609 64.456 32.1081C64.3295 31.7536 64.0244 31.2551 63.5406 30.6126Z" fill="url(#paint2_linear_1095_631)"/>
<path d="M74.262 48.4769C75.409 47.9056 76.602 46.915 77.8412 45.505C79.0804 44.0951 80.3349 42.2071 81.6048 39.8409L82.4252 38.0254C82.6986 37.4202 83.0661 37.0511 83.5276 36.918C84.0455 36.7236 84.4814 36.7107 84.8353 36.8793C85.2473 37.0463 85.5182 37.3667 85.6482 37.8405C85.7781 38.3143 85.6781 38.8845 85.3483 39.5511C84.7467 40.8824 83.8665 42.64 82.7077 44.8238C81.6053 46.9462 80.3294 49.1036 78.88 51.2959C78.0443 52.5745 77.1196 53.796 76.106 54.9604C75.1506 56.1231 74.1626 57.1674 73.1422 58.0932C72.1218 59.019 71.0672 59.7667 69.9783 60.3363C68.8878 60.8462 67.7904 61.1174 66.6862 61.1501C65.758 61.2372 64.9418 61.1718 64.2375 60.9538C63.241 60.6847 62.3563 60.2631 61.5837 59.6888C60.8691 59.1129 60.2674 58.4142 59.7785 57.5927C59.2912 56.8309 58.9185 56.006 58.6604 55.118C58.4603 54.2283 58.3167 53.2772 58.2294 52.2647L58.2063 51.4594C57.0919 53.1641 55.9177 54.811 54.6836 56.3999C53.506 57.9274 52.295 59.3067 51.0507 60.5376C49.8628 61.7072 48.6398 62.6689 47.3818 63.4226C46.1801 64.1149 44.9691 64.4791 43.7486 64.5152C41.5982 64.5787 39.8692 64.1223 38.5615 63.146C37.2538 62.1696 36.3135 60.8241 35.7408 59.1095C35.3629 58.1056 35.156 56.9773 35.12 55.7244C35.0242 54.4137 35.072 53.039 35.2633 51.6003C35.6495 48.8423 36.4108 45.9836 37.5473 43.0243C38.5197 40.4281 39.7554 37.8838 41.2544 35.3914C42.7516 32.8394 44.3736 30.5822 46.1204 28.6199C47.9254 26.6559 49.8286 25.077 51.8302 23.8834C53.8318 22.6897 55.8505 22.0927 57.8863 22.0922C58.9923 22.1192 60.0452 22.3269 61.0452 22.7153C62.0435 23.044 62.9632 23.6736 63.8043 24.6041C64.4043 25.2431 64.9488 25.9734 65.4377 26.7949C65.9847 27.6146 66.5079 28.6142 67.0071 29.7936C67.566 29.0009 68.1557 28.2669 68.7761 27.5918C69.6205 26.6115 70.6204 25.9848 71.7759 25.7118C72.9878 25.3775 74.0912 25.315 75.0861 25.5244C75.7869 25.6231 76.3467 25.8752 76.7655 26.2808C77.357 26.6216 77.8083 27.1456 78.1195 27.8529C78.311 28.4444 78.3298 29.1006 78.176 29.8216C78.0205 30.483 77.6325 31.1513 77.0121 31.8264C76.0549 32.9295 75.1866 34.0896 74.4073 35.3068C73.6843 36.4627 73.0494 37.6458 72.5024 38.8561C71.9026 40.2471 71.4463 41.5742 71.1335 42.8374C70.8191 44.0408 70.6448 45.061 70.6107 45.898C70.5834 46.9735 70.7826 47.8334 71.2083 48.4776C71.4493 48.769 71.8032 48.9377 72.2698 48.9836C72.7946 49.0278 73.4587 48.8589 74.262 48.4769ZM63.5406 30.6126C62.4533 29.2118 61.2149 28.6214 59.8252 28.8416C58.8406 28.9902 57.8091 29.5282 56.7305 30.4557C55.7101 31.3815 54.7239 32.4854 53.7719 33.7675C52.7651 35.1705 51.8499 36.7201 51.0261 38.4163C50.2023 40.1125 49.5238 41.8044 48.9906 43.492C48.2386 45.6638 47.8012 47.6471 47.6782 49.442C47.6117 51.1755 47.9921 52.2689 48.8195 52.7221C49.6468 53.1753 50.8314 52.9014 52.3731 51.9005C54.0243 50.6575 55.7728 48.7549 57.6188 46.1925C58.4494 44.735 59.251 43.2782 60.0235 41.8224C60.796 40.3666 61.4848 39.0326 62.0898 37.8205C62.1445 37.6995 62.2001 37.6083 62.2565 37.5469C62.3112 37.4259 62.3659 37.3049 62.4206 37.1838L64.1536 33.7292C64.5399 33.0013 64.6407 32.4609 64.456 32.1081C64.3295 31.7536 64.0244 31.2551 63.5406 30.6126Z" fill="url(#paint3_linear_1095_631)"/>
<path d="M110.771 37.1873C111.046 36.6418 111.386 36.3332 111.791 36.2615C112.253 36.1284 112.66 36.1462 113.014 36.3149C113.368 36.4835 113.61 36.8048 113.74 37.2786C113.926 37.6911 113.882 38.17 113.607 38.7156C113.056 39.8066 112.283 41.2326 111.286 42.9936C110.346 44.6932 109.235 46.5173 107.954 48.4659C106.672 50.4145 105.244 52.3673 103.672 54.3245C102.156 56.2203 100.546 57.88 98.8418 59.3037C97.1376 60.7274 95.395 61.8238 93.6139 62.593C91.8311 63.3025 90.0611 63.4444 88.3038 63.0187C85.9603 62.4312 84.1218 61.2018 82.7884 59.3305C81.5131 57.4576 80.6916 55.1831 80.3239 52.5071C79.9545 49.7714 80.0423 46.7536 80.5873 43.4535C81.1307 40.0937 82.08 36.6921 83.4353 33.2487C85.0076 29.2614 86.844 25.3559 88.9445 21.5321C91.0451 17.7084 93.2157 14.3005 95.4565 11.3086C97.7553 8.31488 100.013 5.91949 102.23 4.12239C104.503 2.26392 106.514 1.36857 108.261 1.43633C110.298 1.49551 111.891 2.28432 113.04 3.80278C114.247 5.31952 114.738 7.21568 114.512 9.49128C114.323 10.9896 113.817 12.6167 112.995 14.3725C112.173 16.1284 111.148 17.9201 109.921 19.7476C108.75 21.5138 107.434 23.2843 105.973 25.059C104.509 26.7741 103.072 28.369 101.66 29.8438C100.247 31.2589 98.916 32.5223 97.6682 33.6339C96.4769 34.6842 95.5103 35.4591 94.7685 35.9587C94.4386 36.6253 94.0934 37.7699 93.7328 39.3927C93.3723 41.0155 93.1587 42.6937 93.0922 44.4272C93.0837 46.159 93.3026 47.7049 93.7489 49.065C94.1951 50.4251 95.0592 51.1459 96.3413 51.2275C97.8557 51.3021 99.354 50.81 100.836 49.7511C102.374 48.6309 103.791 47.3351 105.087 45.8638C106.381 44.3328 107.528 42.7763 108.53 41.1943C109.53 39.5526 110.277 38.2169 110.771 37.1873ZM97.1167 29.6199C97.5132 29.2499 98.1619 28.5441 99.0626 27.5024C100.02 26.3993 101.06 25.1446 102.183 23.7381C103.306 22.3316 104.455 20.8347 105.631 19.2475C106.805 17.6007 107.809 16.0783 108.641 14.6804C109.53 13.2211 110.162 11.9485 110.538 10.8627C110.972 9.77507 111.01 9.05746 110.651 8.70982C110.292 8.36218 109.773 8.52679 109.094 9.20365C108.414 9.82085 107.627 10.7696 106.733 12.0499C105.839 13.3302 104.893 14.821 103.895 16.5224C102.953 18.1624 102.041 19.8313 101.16 21.5292C100.276 23.1675 99.477 24.7137 98.7626 26.1678C98.0481 27.6219 97.4995 28.7726 97.1167 29.6199Z" fill="white"/>
<path d="M110.771 37.1873C111.046 36.6418 111.386 36.3332 111.791 36.2615C112.253 36.1284 112.66 36.1462 113.014 36.3149C113.368 36.4835 113.61 36.8048 113.74 37.2786C113.926 37.6911 113.882 38.17 113.607 38.7156C113.056 39.8066 112.283 41.2326 111.286 42.9936C110.346 44.6932 109.235 46.5173 107.954 48.4659C106.672 50.4145 105.244 52.3673 103.672 54.3245C102.156 56.2203 100.546 57.88 98.8418 59.3037C97.1376 60.7274 95.395 61.8238 93.6139 62.593C91.8311 63.3025 90.0611 63.4444 88.3038 63.0187C85.9603 62.4312 84.1218 61.2018 82.7884 59.3305C81.5131 57.4576 80.6916 55.1831 80.3239 52.5071C79.9545 49.7714 80.0423 46.7536 80.5873 43.4535C81.1307 40.0937 82.08 36.6921 83.4353 33.2487C85.0076 29.2614 86.844 25.3559 88.9445 21.5321C91.0451 17.7084 93.2157 14.3005 95.4565 11.3086C97.7553 8.31488 100.013 5.91949 102.23 4.12239C104.503 2.26392 106.514 1.36857 108.261 1.43633C110.298 1.49551 111.891 2.28432 113.04 3.80278C114.247 5.31952 114.738 7.21568 114.512 9.49128C114.323 10.9896 113.817 12.6167 112.995 14.3725C112.173 16.1284 111.148 17.9201 109.921 19.7476C108.75 21.5138 107.434 23.2843 105.973 25.059C104.509 26.7741 103.072 28.369 101.66 29.8438C100.247 31.2589 98.916 32.5223 97.6682 33.6339C96.4769 34.6842 95.5103 35.4591 94.7685 35.9587C94.4386 36.6253 94.0934 37.7699 93.7328 39.3927C93.3723 41.0155 93.1587 42.6937 93.0922 44.4272C93.0837 46.159 93.3026 47.7049 93.7489 49.065C94.1951 50.4251 95.0592 51.1459 96.3413 51.2275C97.8557 51.3021 99.354 50.81 100.836 49.7511C102.374 48.6309 103.791 47.3351 105.087 45.8638C106.381 44.3328 107.528 42.7763 108.53 41.1943C109.53 39.5526 110.277 38.2169 110.771 37.1873ZM97.1167 29.6199C97.5132 29.2499 98.1619 28.5441 99.0626 27.5024C100.02 26.3993 101.06 25.1446 102.183 23.7381C103.306 22.3316 104.455 20.8347 105.631 19.2475C106.805 17.6007 107.809 16.0783 108.641 14.6804C109.53 13.2211 110.162 11.9485 110.538 10.8627C110.972 9.77507 111.01 9.05746 110.651 8.70982C110.292 8.36218 109.773 8.52679 109.094 9.20365C108.414 9.82085 107.627 10.7696 106.733 12.0499C105.839 13.3302 104.893 14.821 103.895 16.5224C102.953 18.1624 102.041 19.8313 101.16 21.5292C100.276 23.1675 99.477 24.7137 98.7626 26.1678C98.0481 27.6219 97.4995 28.7726 97.1167 29.6199Z" fill="url(#paint4_linear_1095_631)"/>
<path d="M110.771 37.1873C111.046 36.6418 111.386 36.3332 111.791 36.2615C112.253 36.1284 112.66 36.1462 113.014 36.3149C113.368 36.4835 113.61 36.8048 113.74 37.2786C113.926 37.6911 113.882 38.17 113.607 38.7156C113.056 39.8066 112.283 41.2326 111.286 42.9936C110.346 44.6932 109.235 46.5173 107.954 48.4659C106.672 50.4145 105.244 52.3673 103.672 54.3245C102.156 56.2203 100.546 57.88 98.8418 59.3037C97.1376 60.7274 95.395 61.8238 93.6139 62.593C91.8311 63.3025 90.0611 63.4444 88.3038 63.0187C85.9603 62.4312 84.1218 61.2018 82.7884 59.3305C81.5131 57.4576 80.6916 55.1831 80.3239 52.5071C79.9545 49.7714 80.0423 46.7536 80.5873 43.4535C81.1307 40.0937 82.08 36.6921 83.4353 33.2487C85.0076 29.2614 86.844 25.3559 88.9445 21.5321C91.0451 17.7084 93.2157 14.3005 95.4565 11.3086C97.7553 8.31488 100.013 5.91949 102.23 4.12239C104.503 2.26392 106.514 1.36857 108.261 1.43633C110.298 1.49551 111.891 2.28432 113.04 3.80278C114.247 5.31952 114.738 7.21568 114.512 9.49128C114.323 10.9896 113.817 12.6167 112.995 14.3725C112.173 16.1284 111.148 17.9201 109.921 19.7476C108.75 21.5138 107.434 23.2843 105.973 25.059C104.509 26.7741 103.072 28.369 101.66 29.8438C100.247 31.2589 98.916 32.5223 97.6682 33.6339C96.4769 34.6842 95.5103 35.4591 94.7685 35.9587C94.4386 36.6253 94.0934 37.7699 93.7328 39.3927C93.3723 41.0155 93.1587 42.6937 93.0922 44.4272C93.0837 46.159 93.3026 47.7049 93.7489 49.065C94.1951 50.4251 95.0592 51.1459 96.3413 51.2275C97.8557 51.3021 99.354 50.81 100.836 49.7511C102.374 48.6309 103.791 47.3351 105.087 45.8638C106.381 44.3328 107.528 42.7763 108.53 41.1943C109.53 39.5526 110.277 38.2169 110.771 37.1873ZM97.1167 29.6199C97.5132 29.2499 98.1619 28.5441 99.0626 27.5024C100.02 26.3993 101.06 25.1446 102.183 23.7381C103.306 22.3316 104.455 20.8347 105.631 19.2475C106.805 17.6007 107.809 16.0783 108.641 14.6804C109.53 13.2211 110.162 11.9485 110.538 10.8627C110.972 9.77507 111.01 9.05746 110.651 8.70982C110.292 8.36218 109.773 8.52679 109.094 9.20365C108.414 9.82085 107.627 10.7696 106.733 12.0499C105.839 13.3302 104.893 14.821 103.895 16.5224C102.953 18.1624 102.041 19.8313 101.16 21.5292C100.276 23.1675 99.477 24.7137 98.7626 26.1678C98.0481 27.6219 97.4995 28.7726 97.1167 29.6199Z" fill="url(#paint5_linear_1095_631)"/>
<path d="M137.257 2.19114C137.867 3.18814 137.896 4.17249 137.342 5.1442L137.344 5.23369C135.905 7.78399 134.471 10.4834 133.04 13.332C131.609 16.1806 130.182 19.1187 128.756 22.1463C127.387 25.1125 126.048 28.1077 124.739 31.1318C123.43 34.156 122.233 37.0573 121.15 39.836C120.01 42.676 119.066 45.2415 118.317 47.5326C119.421 45.4698 120.583 43.4054 121.804 41.3392C123.024 39.273 124.276 37.2955 125.56 35.4066C127.903 31.9339 130.204 29.0297 132.464 26.694C134.78 24.2968 136.78 23.0435 138.464 22.934C139.568 22.9014 140.513 23.4108 141.3 24.4623C141.541 24.7537 141.725 25.1065 141.853 25.5207C142.04 25.9332 142.14 26.378 142.154 26.8553C142.179 27.7502 141.916 28.7133 141.364 29.7446C140.754 30.7777 139.593 31.8868 137.882 33.0718C136.171 34.2569 133.674 35.4055 130.39 36.5176C130.191 37.658 130.052 38.916 129.975 40.2915C129.897 41.6074 129.962 42.8594 130.17 44.0474C130.307 44.7599 130.529 45.3803 130.835 45.9086C131.141 46.4369 131.558 46.7828 132.086 46.9463C133.789 47.4931 135.867 46.954 138.322 45.329C139.405 44.5804 140.483 43.6231 141.555 42.4569C142.625 41.2311 143.629 39.7386 144.567 37.9793C144.673 37.6179 144.81 37.3153 144.977 37.0715C145.143 36.7681 145.28 36.4655 145.387 36.1638C145.663 35.6183 146.003 35.3097 146.408 35.238C146.869 35.1049 147.277 35.1227 147.631 35.2914C148.043 35.4583 148.313 35.7489 148.441 36.163C148.626 36.5158 148.609 36.9343 148.39 37.4184C147.787 38.6902 146.906 40.4477 145.749 42.6912C144.649 44.8732 143.346 47.1209 141.842 49.4343C140.054 51.9949 138.113 54.2616 136.017 56.2342C133.98 58.2051 131.828 59.2241 129.561 59.2911C128.052 59.3954 126.678 59.1375 125.438 58.5174C124.433 57.95 123.655 57.1968 123.105 56.2577C122.612 55.3169 122.262 54.2525 122.053 53.0645C121.71 51.2237 121.742 49.3121 122.15 47.3297C120.711 49.88 119.444 52.3356 118.348 54.6966C117.251 56.998 116.409 59.053 115.821 60.8617C115.898 61.5162 115.822 61.9065 115.593 62.0327C115.362 62.0993 114.928 62.1718 114.29 62.2504C113.247 62.4006 112.346 62.3974 111.585 62.2408C109.77 61.8168 108.293 61.0245 107.154 59.864C105.952 58.5263 105.237 56.9054 105.008 55.0015C104.994 54.5243 105.009 54.0163 105.051 53.4777C105.036 52.9408 105.077 52.3425 105.174 51.6828C105.675 48.8617 106.822 45.2453 108.614 40.8335C110.349 36.4235 112.456 31.8234 114.936 27.0331C116.201 24.4879 117.497 22.0015 118.823 19.574C120.206 17.0851 121.563 14.7163 122.894 12.4677C124.226 10.2191 125.533 8.15038 126.817 6.26146C128.1 4.37254 129.275 2.75552 130.342 1.4104C131.354 0.186313 132.679 -0.240985 134.319 0.128508C134.961 0.22892 135.52 0.451229 135.995 0.795432C136.592 1.31517 137.013 1.7804 137.257 2.19114Z" fill="white"/>
<path d="M137.257 2.19114C137.867 3.18814 137.896 4.17249 137.342 5.1442L137.344 5.23369C135.905 7.78399 134.471 10.4834 133.04 13.332C131.609 16.1806 130.182 19.1187 128.756 22.1463C127.387 25.1125 126.048 28.1077 124.739 31.1318C123.43 34.156 122.233 37.0573 121.15 39.836C120.01 42.676 119.066 45.2415 118.317 47.5326C119.421 45.4698 120.583 43.4054 121.804 41.3392C123.024 39.273 124.276 37.2955 125.56 35.4066C127.903 31.9339 130.204 29.0297 132.464 26.694C134.78 24.2968 136.78 23.0435 138.464 22.934C139.568 22.9014 140.513 23.4108 141.3 24.4623C141.541 24.7537 141.725 25.1065 141.853 25.5207C142.04 25.9332 142.14 26.378 142.154 26.8553C142.179 27.7502 141.916 28.7133 141.364 29.7446C140.754 30.7777 139.593 31.8868 137.882 33.0718C136.171 34.2569 133.674 35.4055 130.39 36.5176C130.191 37.658 130.052 38.916 129.975 40.2915C129.897 41.6074 129.962 42.8594 130.17 44.0474C130.307 44.7599 130.529 45.3803 130.835 45.9086C131.141 46.4369 131.558 46.7828 132.086 46.9463C133.789 47.4931 135.867 46.954 138.322 45.329C139.405 44.5804 140.483 43.6231 141.555 42.4569C142.625 41.2311 143.629 39.7386 144.567 37.9793C144.673 37.6179 144.81 37.3153 144.977 37.0715C145.143 36.7681 145.28 36.4655 145.387 36.1638C145.663 35.6183 146.003 35.3097 146.408 35.238C146.869 35.1049 147.277 35.1227 147.631 35.2914C148.043 35.4583 148.313 35.7489 148.441 36.163C148.626 36.5158 148.609 36.9343 148.39 37.4184C147.787 38.6902 146.906 40.4477 145.749 42.6912C144.649 44.8732 143.346 47.1209 141.842 49.4343C140.054 51.9949 138.113 54.2616 136.017 56.2342C133.98 58.2051 131.828 59.2241 129.561 59.2911C128.052 59.3954 126.678 59.1375 125.438 58.5174C124.433 57.95 123.655 57.1968 123.105 56.2577C122.612 55.3169 122.262 54.2525 122.053 53.0645C121.71 51.2237 121.742 49.3121 122.15 47.3297C120.711 49.88 119.444 52.3356 118.348 54.6966C117.251 56.998 116.409 59.053 115.821 60.8617C115.898 61.5162 115.822 61.9065 115.593 62.0327C115.362 62.0993 114.928 62.1718 114.29 62.2504C113.247 62.4006 112.346 62.3974 111.585 62.2408C109.77 61.8168 108.293 61.0245 107.154 59.864C105.952 58.5263 105.237 56.9054 105.008 55.0015C104.994 54.5243 105.009 54.0163 105.051 53.4777C105.036 52.9408 105.077 52.3425 105.174 51.6828C105.675 48.8617 106.822 45.2453 108.614 40.8335C110.349 36.4235 112.456 31.8234 114.936 27.0331C116.201 24.4879 117.497 22.0015 118.823 19.574C120.206 17.0851 121.563 14.7163 122.894 12.4677C124.226 10.2191 125.533 8.15038 126.817 6.26146C128.1 4.37254 129.275 2.75552 130.342 1.4104C131.354 0.186313 132.679 -0.240985 134.319 0.128508C134.961 0.22892 135.52 0.451229 135.995 0.795432C136.592 1.31517 137.013 1.7804 137.257 2.19114Z" fill="url(#paint6_linear_1095_631)"/>
<path d="M137.257 2.19114C137.867 3.18814 137.896 4.17249 137.342 5.1442L137.344 5.23369C135.905 7.78399 134.471 10.4834 133.04 13.332C131.609 16.1806 130.182 19.1187 128.756 22.1463C127.387 25.1125 126.048 28.1077 124.739 31.1318C123.43 34.156 122.233 37.0573 121.15 39.836C120.01 42.676 119.066 45.2415 118.317 47.5326C119.421 45.4698 120.583 43.4054 121.804 41.3392C123.024 39.273 124.276 37.2955 125.56 35.4066C127.903 31.9339 130.204 29.0297 132.464 26.694C134.78 24.2968 136.78 23.0435 138.464 22.934C139.568 22.9014 140.513 23.4108 141.3 24.4623C141.541 24.7537 141.725 25.1065 141.853 25.5207C142.04 25.9332 142.14 26.378 142.154 26.8553C142.179 27.7502 141.916 28.7133 141.364 29.7446C140.754 30.7777 139.593 31.8868 137.882 33.0718C136.171 34.2569 133.674 35.4055 130.39 36.5176C130.191 37.658 130.052 38.916 129.975 40.2915C129.897 41.6074 129.962 42.8594 130.17 44.0474C130.307 44.7599 130.529 45.3803 130.835 45.9086C131.141 46.4369 131.558 46.7828 132.086 46.9463C133.789 47.4931 135.867 46.954 138.322 45.329C139.405 44.5804 140.483 43.6231 141.555 42.4569C142.625 41.2311 143.629 39.7386 144.567 37.9793C144.673 37.6179 144.81 37.3153 144.977 37.0715C145.143 36.7681 145.28 36.4655 145.387 36.1638C145.663 35.6183 146.003 35.3097 146.408 35.238C146.869 35.1049 147.277 35.1227 147.631 35.2914C148.043 35.4583 148.313 35.7489 148.441 36.163C148.626 36.5158 148.609 36.9343 148.39 37.4184C147.787 38.6902 146.906 40.4477 145.749 42.6912C144.649 44.8732 143.346 47.1209 141.842 49.4343C140.054 51.9949 138.113 54.2616 136.017 56.2342C133.98 58.2051 131.828 59.2241 129.561 59.2911C128.052 59.3954 126.678 59.1375 125.438 58.5174C124.433 57.95 123.655 57.1968 123.105 56.2577C122.612 55.3169 122.262 54.2525 122.053 53.0645C121.71 51.2237 121.742 49.3121 122.15 47.3297C120.711 49.88 119.444 52.3356 118.348 54.6966C117.251 56.998 116.409 59.053 115.821 60.8617C115.898 61.5162 115.822 61.9065 115.593 62.0327C115.362 62.0993 114.928 62.1718 114.29 62.2504C113.247 62.4006 112.346 62.3974 111.585 62.2408C109.77 61.8168 108.293 61.0245 107.154 59.864C105.952 58.5263 105.237 56.9054 105.008 55.0015C104.994 54.5243 105.009 54.0163 105.051 53.4777C105.036 52.9408 105.077 52.3425 105.174 51.6828C105.675 48.8617 106.822 45.2453 108.614 40.8335C110.349 36.4235 112.456 31.8234 114.936 27.0331C116.201 24.4879 117.497 22.0015 118.823 19.574C120.206 17.0851 121.563 14.7163 122.894 12.4677C124.226 10.2191 125.533 8.15038 126.817 6.26146C128.1 4.37254 129.275 2.75552 130.342 1.4104C131.354 0.186313 132.679 -0.240985 134.319 0.128508C134.961 0.22892 135.52 0.451229 135.995 0.795432C136.592 1.31517 137.013 1.7804 137.257 2.19114Z" fill="url(#paint7_linear_1095_631)"/>
<path d="M125.593 68.1419C126.191 68.9869 126.276 69.9679 125.846 71.0849C124.56 73.7769 123.34 76.5528 122.185 79.4127C121.03 82.2726 120.018 85.0898 119.147 87.8642C120.522 85.5238 122.046 83.2298 123.721 80.9822C125.448 78.67 127.22 76.5335 129.035 74.5729C130.904 72.5475 132.759 70.7031 134.601 69.0397C136.5 67.3711 138.338 66.0076 140.115 64.9491C140.89 64.46 141.864 64.2526 143.038 64.3268C143.632 64.4531 144.206 64.6712 144.757 64.9811C145.372 65.3452 145.819 65.7844 146.096 66.2986C146.694 67.1436 146.779 68.1246 146.349 69.2417C144.815 72.4353 143.443 75.4944 142.236 78.419C141.081 81.2789 140.119 84.0016 139.349 86.5873C138.988 87.818 138.658 89.0759 138.36 90.3609C139.588 87.6742 141.019 84.9692 142.652 82.246C144.281 79.4634 146.04 76.8487 147.931 74.4019C149.875 71.8905 151.868 69.6143 153.91 67.5734C156.011 65.5272 158.086 63.8727 160.137 62.6098C160.907 62.0613 161.721 61.6885 162.58 61.4915C163.438 61.2945 164.252 61.2513 165.02 61.362C165.731 61.4779 166.304 61.6959 166.74 62.0162C167.418 62.4346 167.901 62.9604 168.189 63.5935C168.764 64.8599 168.472 66.2044 167.31 67.6269C166.417 68.7856 165.519 70.2145 164.614 71.9135C163.762 73.5479 163.003 75.2338 162.335 76.9715C161.509 78.9031 160.875 80.6976 160.434 82.355C159.993 84.0123 159.779 85.2598 159.793 86.0974C159.9 87.3459 160.177 88.1898 160.623 88.629C160.886 88.9649 161.22 89.1146 161.625 89.0782C162.093 89.096 162.776 88.8848 163.672 88.4448C164.726 87.8108 165.832 86.7528 166.988 85.2707C168.145 83.7887 169.29 81.8285 170.422 79.3899C170.565 79.0176 170.685 78.7073 170.78 78.4591C170.928 78.1462 171.047 77.8359 171.138 77.5282C171.424 76.7835 171.791 76.3011 172.239 76.0811C172.745 75.8559 173.182 75.8465 173.55 76.0531C173.913 76.2003 174.175 76.5362 174.337 77.0608C174.494 77.5261 174.429 78.131 174.143 78.8757C173.618 80.241 172.84 82.0485 171.807 84.2983C170.828 86.4833 169.677 88.7137 168.355 90.9895C167.594 92.3162 166.741 93.5912 165.795 94.8146C164.908 96.0327 163.981 97.1346 163.015 98.1201C162.049 99.1057 161.039 99.9155 159.985 100.549C158.925 101.124 157.845 101.461 156.745 101.56C155.823 101.703 155.005 101.686 154.289 101.511C153.279 101.302 152.375 100.964 151.576 100.497C150.829 99.9646 150.189 99.3032 149.654 98.5125C148.647 96.9853 148.057 95.211 147.883 93.1895C147.754 92.3623 147.714 91.5571 147.763 90.7738C147.812 89.9904 147.891 89.2045 147.998 88.4159C148.276 86.8931 148.664 85.3004 149.163 83.6379C149.662 81.9753 150.248 80.3049 150.921 78.6267C148.039 81.7618 145.472 85.168 143.22 88.8455C140.963 92.4636 139.348 96.0838 138.375 99.7062C138.479 100.236 138.421 100.571 138.199 100.711C137.978 100.85 137.551 100.979 136.919 101.095C135.829 101.313 134.9 101.367 134.131 101.256C132.421 101.05 130.93 100.346 129.66 99.1417C128.389 97.9378 127.582 96.3627 127.24 94.4163C127.1 93.4702 127.092 92.3625 127.217 91.0931C127.368 89.4618 127.641 87.8795 128.034 86.3462C128.422 84.7535 128.9 83.1828 129.467 81.6339C126.454 84.601 123.753 87.8096 121.365 91.2596C119.035 94.7045 117.376 98.149 116.388 101.593C116.347 103.154 116.465 104.522 116.741 105.695C116.923 106.458 116.937 106.966 116.784 107.219C116.689 107.468 116.238 107.658 115.432 107.79C114.4 108.003 113.5 108.054 112.732 107.943C110.895 107.629 109.376 106.927 108.173 105.837C106.96 104.628 106.182 103.05 105.84 101.103C105.59 100.227 105.553 99.122 105.73 97.788C105.984 95.3087 106.548 92.7115 107.424 89.9966C108.236 87.2274 109.225 84.4723 110.39 81.7313C111.55 78.9308 112.873 76.3255 114.358 73.9152C115.839 71.4454 117.347 69.3027 118.883 67.4869C119.359 66.905 119.91 66.5259 120.537 66.3497C121.221 66.1683 121.887 66.1084 122.535 66.1701C123.192 66.3506 123.766 66.5687 124.254 66.8243C124.743 67.0799 125.19 67.5191 125.593 68.1419Z" fill="white"/>
<path d="M125.593 68.1419C126.191 68.9869 126.276 69.9679 125.846 71.0849C124.56 73.7769 123.34 76.5528 122.185 79.4127C121.03 82.2726 120.018 85.0898 119.147 87.8642C120.522 85.5238 122.046 83.2298 123.721 80.9822C125.448 78.67 127.22 76.5335 129.035 74.5729C130.904 72.5475 132.759 70.7031 134.601 69.0397C136.5 67.3711 138.338 66.0076 140.115 64.9491C140.89 64.46 141.864 64.2526 143.038 64.3268C143.632 64.4531 144.206 64.6712 144.757 64.9811C145.372 65.3452 145.819 65.7844 146.096 66.2986C146.694 67.1436 146.779 68.1246 146.349 69.2417C144.815 72.4353 143.443 75.4944 142.236 78.419C141.081 81.2789 140.119 84.0016 139.349 86.5873C138.988 87.818 138.658 89.0759 138.36 90.3609C139.588 87.6742 141.019 84.9692 142.652 82.246C144.281 79.4634 146.04 76.8487 147.931 74.4019C149.875 71.8905 151.868 69.6143 153.91 67.5734C156.011 65.5272 158.086 63.8727 160.137 62.6098C160.907 62.0613 161.721 61.6885 162.58 61.4915C163.438 61.2945 164.252 61.2513 165.02 61.362C165.731 61.4779 166.304 61.6959 166.74 62.0162C167.418 62.4346 167.901 62.9604 168.189 63.5935C168.764 64.8599 168.472 66.2044 167.31 67.6269C166.417 68.7856 165.519 70.2145 164.614 71.9135C163.762 73.5479 163.003 75.2338 162.335 76.9715C161.509 78.9031 160.875 80.6976 160.434 82.355C159.993 84.0123 159.779 85.2598 159.793 86.0974C159.9 87.3459 160.177 88.1898 160.623 88.629C160.886 88.9649 161.22 89.1146 161.625 89.0782C162.093 89.096 162.776 88.8848 163.672 88.4448C164.726 87.8108 165.832 86.7528 166.988 85.2707C168.145 83.7887 169.29 81.8285 170.422 79.3899C170.565 79.0176 170.685 78.7073 170.78 78.4591C170.928 78.1462 171.047 77.8359 171.138 77.5282C171.424 76.7835 171.791 76.3011 172.239 76.0811C172.745 75.8559 173.182 75.8465 173.55 76.0531C173.913 76.2003 174.175 76.5362 174.337 77.0608C174.494 77.5261 174.429 78.131 174.143 78.8757C173.618 80.241 172.84 82.0485 171.807 84.2983C170.828 86.4833 169.677 88.7137 168.355 90.9895C167.594 92.3162 166.741 93.5912 165.795 94.8146C164.908 96.0327 163.981 97.1346 163.015 98.1201C162.049 99.1057 161.039 99.9155 159.985 100.549C158.925 101.124 157.845 101.461 156.745 101.56C155.823 101.703 155.005 101.686 154.289 101.511C153.279 101.302 152.375 100.964 151.576 100.497C150.829 99.9646 150.189 99.3032 149.654 98.5125C148.647 96.9853 148.057 95.211 147.883 93.1895C147.754 92.3623 147.714 91.5571 147.763 90.7738C147.812 89.9904 147.891 89.2045 147.998 88.4159C148.276 86.8931 148.664 85.3004 149.163 83.6379C149.662 81.9753 150.248 80.3049 150.921 78.6267C148.039 81.7618 145.472 85.168 143.22 88.8455C140.963 92.4636 139.348 96.0838 138.375 99.7062C138.479 100.236 138.421 100.571 138.199 100.711C137.978 100.85 137.551 100.979 136.919 101.095C135.829 101.313 134.9 101.367 134.131 101.256C132.421 101.05 130.93 100.346 129.66 99.1417C128.389 97.9378 127.582 96.3627 127.24 94.4163C127.1 93.4702 127.092 92.3625 127.217 91.0931C127.368 89.4618 127.641 87.8795 128.034 86.3462C128.422 84.7535 128.9 83.1828 129.467 81.6339C126.454 84.601 123.753 87.8096 121.365 91.2596C119.035 94.7045 117.376 98.149 116.388 101.593C116.347 103.154 116.465 104.522 116.741 105.695C116.923 106.458 116.937 106.966 116.784 107.219C116.689 107.468 116.238 107.658 115.432 107.79C114.4 108.003 113.5 108.054 112.732 107.943C110.895 107.629 109.376 106.927 108.173 105.837C106.96 104.628 106.182 103.05 105.84 101.103C105.59 100.227 105.553 99.122 105.73 97.788C105.984 95.3087 106.548 92.7115 107.424 89.9966C108.236 87.2274 109.225 84.4723 110.39 81.7313C111.55 78.9308 112.873 76.3255 114.358 73.9152C115.839 71.4454 117.347 69.3027 118.883 67.4869C119.359 66.905 119.91 66.5259 120.537 66.3497C121.221 66.1683 121.887 66.1084 122.535 66.1701C123.192 66.3506 123.766 66.5687 124.254 66.8243C124.743 67.0799 125.19 67.5191 125.593 68.1419Z" fill="url(#paint8_linear_1095_631)"/>
<path d="M125.593 68.1419C126.191 68.9869 126.276 69.9679 125.846 71.0849C124.56 73.7769 123.34 76.5528 122.185 79.4127C121.03 82.2726 120.018 85.0898 119.147 87.8642C120.522 85.5238 122.046 83.2298 123.721 80.9822C125.448 78.67 127.22 76.5335 129.035 74.5729C130.904 72.5475 132.759 70.7031 134.601 69.0397C136.5 67.3711 138.338 66.0076 140.115 64.9491C140.89 64.46 141.864 64.2526 143.038 64.3268C143.632 64.4531 144.206 64.6712 144.757 64.9811C145.372 65.3452 145.819 65.7844 146.096 66.2986C146.694 67.1436 146.779 68.1246 146.349 69.2417C144.815 72.4353 143.443 75.4944 142.236 78.419C141.081 81.2789 140.119 84.0016 139.349 86.5873C138.988 87.818 138.658 89.0759 138.36 90.3609C139.588 87.6742 141.019 84.9692 142.652 82.246C144.281 79.4634 146.04 76.8487 147.931 74.4019C149.875 71.8905 151.868 69.6143 153.91 67.5734C156.011 65.5272 158.086 63.8727 160.137 62.6098C160.907 62.0613 161.721 61.6885 162.58 61.4915C163.438 61.2945 164.252 61.2513 165.02 61.362C165.731 61.4779 166.304 61.6959 166.74 62.0162C167.418 62.4346 167.901 62.9604 168.189 63.5935C168.764 64.8599 168.472 66.2044 167.31 67.6269C166.417 68.7856 165.519 70.2145 164.614 71.9135C163.762 73.5479 163.003 75.2338 162.335 76.9715C161.509 78.9031 160.875 80.6976 160.434 82.355C159.993 84.0123 159.779 85.2598 159.793 86.0974C159.9 87.3459 160.177 88.1898 160.623 88.629C160.886 88.9649 161.22 89.1146 161.625 89.0782C162.093 89.096 162.776 88.8848 163.672 88.4448C164.726 87.8108 165.832 86.7528 166.988 85.2707C168.145 83.7887 169.29 81.8285 170.422 79.3899C170.565 79.0176 170.685 78.7073 170.78 78.4591C170.928 78.1462 171.047 77.8359 171.138 77.5282C171.424 76.7835 171.791 76.3011 172.239 76.0811C172.745 75.8559 173.182 75.8465 173.55 76.0531C173.913 76.2003 174.175 76.5362 174.337 77.0608C174.494 77.5261 174.429 78.131 174.143 78.8757C173.618 80.241 172.84 82.0485 171.807 84.2983C170.828 86.4833 169.677 88.7137 168.355 90.9895C167.594 92.3162 166.741 93.5912 165.795 94.8146C164.908 96.0327 163.981 97.1346 163.015 98.1201C162.049 99.1057 161.039 99.9155 159.985 100.549C158.925 101.124 157.845 101.461 156.745 101.56C155.823 101.703 155.005 101.686 154.289 101.511C153.279 101.302 152.375 100.964 151.576 100.497C150.829 99.9646 150.189 99.3032 149.654 98.5125C148.647 96.9853 148.057 95.211 147.883 93.1895C147.754 92.3623 147.714 91.5571 147.763 90.7738C147.812 89.9904 147.891 89.2045 147.998 88.4159C148.276 86.8931 148.664 85.3004 149.163 83.6379C149.662 81.9753 150.248 80.3049 150.921 78.6267C148.039 81.7618 145.472 85.168 143.22 88.8455C140.963 92.4636 139.348 96.0838 138.375 99.7062C138.479 100.236 138.421 100.571 138.199 100.711C137.978 100.85 137.551 100.979 136.919 101.095C135.829 101.313 134.9 101.367 134.131 101.256C132.421 101.05 130.93 100.346 129.66 99.1417C128.389 97.9378 127.582 96.3627 127.24 94.4163C127.1 93.4702 127.092 92.3625 127.217 91.0931C127.368 89.4618 127.641 87.8795 128.034 86.3462C128.422 84.7535 128.9 83.1828 129.467 81.6339C126.454 84.601 123.753 87.8096 121.365 91.2596C119.035 94.7045 117.376 98.149 116.388 101.593C116.347 103.154 116.465 104.522 116.741 105.695C116.923 106.458 116.937 106.966 116.784 107.219C116.689 107.468 116.238 107.658 115.432 107.79C114.4 108.003 113.5 108.054 112.732 107.943C110.895 107.629 109.376 106.927 108.173 105.837C106.96 104.628 106.182 103.05 105.84 101.103C105.59 100.227 105.553 99.122 105.73 97.788C105.984 95.3087 106.548 92.7115 107.424 89.9966C108.236 87.2274 109.225 84.4723 110.39 81.7313C111.55 78.9308 112.873 76.3255 114.358 73.9152C115.839 71.4454 117.347 69.3027 118.883 67.4869C119.359 66.905 119.91 66.5259 120.537 66.3497C121.221 66.1683 121.887 66.1084 122.535 66.1701C123.192 66.3506 123.766 66.5687 124.254 66.8243C124.743 67.0799 125.19 67.5191 125.593 68.1419Z" fill="url(#paint9_linear_1095_631)"/>
<path d="M203.815 74.5904C204.117 74.0241 204.465 73.6632 204.86 73.5079C205.313 73.3473 205.724 73.3703 206.092 73.5769C206.455 73.724 206.714 74.0302 206.871 74.4954C207.081 74.896 207.035 75.3794 206.733 75.9458C205.653 78.3196 204.241 80.9031 202.497 83.6962C200.81 86.484 198.88 89.1441 196.704 91.6763C194.582 94.1439 192.229 96.3026 189.645 98.1527C187.118 99.9975 184.504 101.161 181.803 101.644C179.907 101.994 178.064 101.95 176.276 101.511C173.598 100.913 171.624 99.6828 170.355 97.8197C169.023 95.9024 168.247 93.6655 168.027 91.1089C167.91 89.7414 167.934 88.3312 168.101 86.8783C168.268 85.4253 168.522 83.9645 168.863 82.496C169.644 79.37 170.792 76.4209 172.304 73.6487C173.41 71.5721 174.673 69.6312 176.093 67.8258C177.509 65.9611 179.008 64.3883 180.59 63.1077C182.226 61.7624 183.892 60.7738 185.588 60.142C187.343 59.5049 189.081 59.3487 190.801 59.6733C192.879 60.0856 194.596 61.0398 195.95 62.5357C197.446 64.3185 198.132 66.5335 198.01 69.1808C197.938 70.3855 197.698 71.6653 197.289 73.0202C196.938 74.3699 196.356 75.7404 195.541 77.1317C194.283 79.4617 192.497 81.7791 190.186 84.084C187.869 86.3293 184.955 88.4187 181.445 90.352C181.934 90.6076 182.617 90.7558 183.496 90.7966C185.486 90.8574 187.517 90.3753 189.588 89.3503C191.717 88.32 193.676 87.0055 195.465 85.4068C197.311 83.8028 198.969 82.0361 200.437 80.1067C201.906 78.1772 203.032 76.3385 203.815 74.5904ZM179.329 87.1271C181.555 85.1894 183.44 83.0128 184.983 80.5973C186.585 78.1766 187.867 75.7845 188.831 73.4211C189.938 70.6853 190.581 68.3208 190.76 66.3275C190.902 64.5773 190.752 63.5123 190.311 63.1326C190.305 63.0731 190.274 63.046 190.216 63.0512C189.742 62.9739 189.152 63.2367 188.445 63.8395C187.796 64.4371 187.081 65.2803 186.299 66.3691C185.512 67.3985 184.714 68.6386 183.905 70.0894C183.154 71.5349 182.465 73.0348 181.84 74.5888C180.828 77.0764 180.046 79.5134 179.492 81.8998C179.087 83.9734 179.032 85.7158 179.329 87.1271Z" fill="white"/>
<path d="M203.815 74.5904C204.117 74.0241 204.465 73.6632 204.86 73.5079C205.313 73.3473 205.724 73.3703 206.092 73.5769C206.455 73.724 206.714 74.0302 206.871 74.4954C207.081 74.896 207.035 75.3794 206.733 75.9458C205.653 78.3196 204.241 80.9031 202.497 83.6962C200.81 86.484 198.88 89.1441 196.704 91.6763C194.582 94.1439 192.229 96.3026 189.645 98.1527C187.118 99.9975 184.504 101.161 181.803 101.644C179.907 101.994 178.064 101.95 176.276 101.511C173.598 100.913 171.624 99.6828 170.355 97.8197C169.023 95.9024 168.247 93.6655 168.027 91.1089C167.91 89.7414 167.934 88.3312 168.101 86.8783C168.268 85.4253 168.522 83.9645 168.863 82.496C169.644 79.37 170.792 76.4209 172.304 73.6487C173.41 71.5721 174.673 69.6312 176.093 67.8258C177.509 65.9611 179.008 64.3883 180.59 63.1077C182.226 61.7624 183.892 60.7738 185.588 60.142C187.343 59.5049 189.081 59.3487 190.801 59.6733C192.879 60.0856 194.596 61.0398 195.95 62.5357C197.446 64.3185 198.132 66.5335 198.01 69.1808C197.938 70.3855 197.698 71.6653 197.289 73.0202C196.938 74.3699 196.356 75.7404 195.541 77.1317C194.283 79.4617 192.497 81.7791 190.186 84.084C187.869 86.3293 184.955 88.4187 181.445 90.352C181.934 90.6076 182.617 90.7558 183.496 90.7966C185.486 90.8574 187.517 90.3753 189.588 89.3503C191.717 88.32 193.676 87.0055 195.465 85.4068C197.311 83.8028 198.969 82.0361 200.437 80.1067C201.906 78.1772 203.032 76.3385 203.815 74.5904ZM179.329 87.1271C181.555 85.1894 183.44 83.0128 184.983 80.5973C186.585 78.1766 187.867 75.7845 188.831 73.4211C189.938 70.6853 190.581 68.3208 190.76 66.3275C190.902 64.5773 190.752 63.5123 190.311 63.1326C190.305 63.0731 190.274 63.046 190.216 63.0512C189.742 62.9739 189.152 63.2367 188.445 63.8395C187.796 64.4371 187.081 65.2803 186.299 66.3691C185.512 67.3985 184.714 68.6386 183.905 70.0894C183.154 71.5349 182.465 73.0348 181.84 74.5888C180.828 77.0764 180.046 79.5134 179.492 81.8998C179.087 83.9734 179.032 85.7158 179.329 87.1271Z" fill="url(#paint10_linear_1095_631)"/>
<path d="M203.815 74.5904C204.117 74.0241 204.465 73.6632 204.86 73.5079C205.313 73.3473 205.724 73.3703 206.092 73.5769C206.455 73.724 206.714 74.0302 206.871 74.4954C207.081 74.896 207.035 75.3794 206.733 75.9458C205.653 78.3196 204.241 80.9031 202.497 83.6962C200.81 86.484 198.88 89.1441 196.704 91.6763C194.582 94.1439 192.229 96.3026 189.645 98.1527C187.118 99.9975 184.504 101.161 181.803 101.644C179.907 101.994 178.064 101.95 176.276 101.511C173.598 100.913 171.624 99.6828 170.355 97.8197C169.023 95.9024 168.247 93.6655 168.027 91.1089C167.91 89.7414 167.934 88.3312 168.101 86.8783C168.268 85.4253 168.522 83.9645 168.863 82.496C169.644 79.37 170.792 76.4209 172.304 73.6487C173.41 71.5721 174.673 69.6312 176.093 67.8258C177.509 65.9611 179.008 64.3883 180.59 63.1077C182.226 61.7624 183.892 60.7738 185.588 60.142C187.343 59.5049 189.081 59.3487 190.801 59.6733C192.879 60.0856 194.596 61.0398 195.95 62.5357C197.446 64.3185 198.132 66.5335 198.01 69.1808C197.938 70.3855 197.698 71.6653 197.289 73.0202C196.938 74.3699 196.356 75.7404 195.541 77.1317C194.283 79.4617 192.497 81.7791 190.186 84.084C187.869 86.3293 184.955 88.4187 181.445 90.352C181.934 90.6076 182.617 90.7558 183.496 90.7966C185.486 90.8574 187.517 90.3753 189.588 89.3503C191.717 88.32 193.676 87.0055 195.465 85.4068C197.311 83.8028 198.969 82.0361 200.437 80.1067C201.906 78.1772 203.032 76.3385 203.815 74.5904ZM179.329 87.1271C181.555 85.1894 183.44 83.0128 184.983 80.5973C186.585 78.1766 187.867 75.7845 188.831 73.4211C189.938 70.6853 190.581 68.3208 190.76 66.3275C190.902 64.5773 190.752 63.5123 190.311 63.1326C190.305 63.0731 190.274 63.046 190.216 63.0512C189.742 62.9739 189.152 63.2367 188.445 63.8395C187.796 64.4371 187.081 65.2803 186.299 66.3691C185.512 67.3985 184.714 68.6386 183.905 70.0894C183.154 71.5349 182.465 73.0348 181.84 74.5888C180.828 77.0764 180.046 79.5134 179.492 81.8998C179.087 83.9734 179.032 85.7158 179.329 87.1271Z" fill="url(#paint11_linear_1095_631)"/>
<defs>
<linearGradient id="paint0_linear_1095_631" x1="134.223" y1="100.663" x2="128.81" y2="-14.8979" gradientUnits="userSpaceOnUse">
<stop stop-color="#3E4FD7"/>
<stop offset="1" stop-color="#0198FF"/>
</linearGradient>
<linearGradient id="paint1_linear_1095_631" x1="24.6755" y1="93.3018" x2="111.625" y2="-59.9736" gradientUnits="userSpaceOnUse">
<stop stop-color="#1738E3"/>
<stop offset="1" stop-color="#7117E3"/>
</linearGradient>
<linearGradient id="paint2_linear_1095_631" x1="134.223" y1="100.663" x2="128.81" y2="-14.8979" gradientUnits="userSpaceOnUse">
<stop stop-color="#3E4FD7"/>
<stop offset="1" stop-color="#0198FF"/>
</linearGradient>
<linearGradient id="paint3_linear_1095_631" x1="24.6755" y1="93.3018" x2="111.625" y2="-59.9736" gradientUnits="userSpaceOnUse">
<stop stop-color="#1738E3"/>
<stop offset="1" stop-color="#7117E3"/>
</linearGradient>
<linearGradient id="paint4_linear_1095_631" x1="134.223" y1="100.663" x2="128.81" y2="-14.8979" gradientUnits="userSpaceOnUse">
<stop stop-color="#3E4FD7"/>
<stop offset="1" stop-color="#0198FF"/>
</linearGradient>
<linearGradient id="paint5_linear_1095_631" x1="24.6755" y1="93.3018" x2="111.625" y2="-59.9736" gradientUnits="userSpaceOnUse">
<stop stop-color="#1738E3"/>
<stop offset="1" stop-color="#7117E3"/>
</linearGradient>
<linearGradient id="paint6_linear_1095_631" x1="134.223" y1="100.663" x2="128.81" y2="-14.8979" gradientUnits="userSpaceOnUse">
<stop stop-color="#3E4FD7"/>
<stop offset="1" stop-color="#0198FF"/>
</linearGradient>
<linearGradient id="paint7_linear_1095_631" x1="24.6755" y1="93.3018" x2="111.625" y2="-59.9736" gradientUnits="userSpaceOnUse">
<stop stop-color="#1738E3"/>
<stop offset="1" stop-color="#7117E3"/>
</linearGradient>
<linearGradient id="paint8_linear_1095_631" x1="134.223" y1="100.663" x2="128.81" y2="-14.8979" gradientUnits="userSpaceOnUse">
<stop stop-color="#3E4FD7"/>
<stop offset="1" stop-color="#0198FF"/>
</linearGradient>
<linearGradient id="paint9_linear_1095_631" x1="24.6755" y1="93.3018" x2="111.625" y2="-59.9736" gradientUnits="userSpaceOnUse">
<stop stop-color="#1738E3"/>
<stop offset="1" stop-color="#7117E3"/>
</linearGradient>
<linearGradient id="paint10_linear_1095_631" x1="134.223" y1="100.663" x2="128.81" y2="-14.8979" gradientUnits="userSpaceOnUse">
<stop stop-color="#3E4FD7"/>
<stop offset="1" stop-color="#0198FF"/>
</linearGradient>
<linearGradient id="paint11_linear_1095_631" x1="24.6755" y1="93.3018" x2="111.625" y2="-59.9736" gradientUnits="userSpaceOnUse">
<stop stop-color="#1738E3"/>
<stop offset="1" stop-color="#7117E3"/>
</linearGradient>
</defs>
</svg>
